<?xml version="1.0" encoding="UTF-8" standalone="no"?>
<!-- Generator: Adobe Illustrator 11.0, SVG Export Plug-In  -->

<svg
   width="89.739349"
   height="60.35878"
   viewBox="-0.52 -0.108 44.917002 39.828763"
   xml:space="preserve"
   id="svg2"
   sodipodi:version="0.32"
   inkscape:version="1.2.2 (b0a8486541, 2022-12-01)"
   sodipodi:docname="elk_small.svg"
   inkscape:output_extension="org.inkscape.output.svg.inkscape"
   inkscape:export-filename="/home/dewhurst/elk/release/elk.png"
   inkscape:export-xdpi="48.5909"
   inkscape:export-ydpi="48.5909"
   version="1.0"
   xmlns:inkscape="http://www.inkscape.org/namespaces/inkscape"
   xmlns:sodipodi="http://sodipodi.sourceforge.net/DTD/sodipodi-0.dtd"
   xmlns="http://www.w3.org/2000/svg"
   xmlns:svg="http://www.w3.org/2000/svg"
   xmlns:rdf="http://www.w3.org/1999/02/22-rdf-syntax-ns#"
   xmlns:cc="http://creativecommons.org/ns#"
   xmlns:dc="http://purl.org/dc/elements/1.1/"><metadata
   id="metadata17"><rdf:RDF><cc:Work
       rdf:about=""><dc:format>image/svg+xml</dc:format><dc:type
         rdf:resource="http://purl.org/dc/dcmitype/StillImage" /></cc:Work></rdf:RDF></metadata><sodipodi:namedview
   inkscape:window-height="841"
   inkscape:window-width="1685"
   inkscape:pageshadow="2"
   inkscape:pageopacity="0.0"
   guidetolerance="10.0"
   gridtolerance="10.0"
   objecttolerance="10.0"
   borderopacity="1.0"
   bordercolor="#666666"
   pagecolor="#ffffff"
   id="base"
   showgrid="false"
   inkscape:zoom="1.5026019"
   inkscape:cx="45.58759"
   inkscape:cy="-69.546032"
   inkscape:window-x="37"
   inkscape:window-y="85"
   inkscape:current-layer="svg2"
   inkscape:window-maximized="0"
   inkscape:showpageshadow="2"
   inkscape:pagecheckerboard="0"
   inkscape:deskcolor="#d1d1d1" />
	<defs
   id="defs4"><linearGradient
   id="linearGradient3157"><stop
     style="stop-color:#000000;stop-opacity:1;"
     offset="0"
     id="stop3159" /><stop
     style="stop-color:#506080;stop-opacity:1;"
     offset="1"
     id="stop3161" /></linearGradient><linearGradient
   id="linearGradient3154"><stop
     style="stop-color:#808080;stop-opacity:1;"
     offset="0"
     id="stop3156" /><stop
     style="stop-color:#202020;stop-opacity:1;"
     offset="1"
     id="stop3158" /></linearGradient><inkscape:perspective
   sodipodi:type="inkscape:persp3d"
   inkscape:vp_x="0 : -187.17124 : 1"
   inkscape:vp_y="0 : 1000 : 0"
   inkscape:vp_z="511.99998 : -187.17124 : 1"
   inkscape:persp3d-origin="255.99999 : -262.83792 : 1"
   id="perspective19" />
	
		
		
		
		
	</defs>
	
<path
   id="path14"
   style="fill:#000000;fill-opacity:1;stroke:none;stroke-width:0.0765625"
   d="m 15.57972,29.757181 c 0.129776,0.69212 0.360474,1.384226 0.677683,2.018644 0.620006,1.211208 1.499564,2.249375 2.581001,3.056829 l 0.158603,-0.129766 c 0.620019,-0.547932 1.182343,-1.139111 1.687019,-1.78797 l 0.533495,-0.677664 c 0.216294,-0.331647 0.389308,-0.692122 0.504674,-1.06702 0.14418,-0.461395 0.230705,-0.922813 0.25954,-1.398643 0.04326,-0.908395 0.01442,-1.831207 -0.08651,-2.754018 -0.317214,0 -0.634442,0 -0.95165,0.02882 -0.259546,0.02885 -0.519086,0.0577 -0.778631,0.129769 -0.591159,0.144207 -1.211192,0.230725 -1.831212,0.230725 -0.591179,0 -1.182357,-0.0721 -1.759119,-0.216279 -0.389287,-0.08652 -0.7642,-0.23072 -1.110256,-0.432583 l -0.02886,0.346064 c -0.01443,0.259539 -0.01443,0.490229 -0.01443,0.735364 0,0.648835 0.05767,1.283276 0.158624,1.917718 z M 26.163242,12.771629 c 0.04326,0 0.08651,0 0.129769,0 0.749777,0 1.49958,0.0865 2.234945,0.245104 0.720941,0.144211 1.427472,0.331636 2.119587,0.533514 l 0.591179,0.18744 0.230703,0.05767 -0.08652,-0.129774 L 31.181062,13.420488 31.008026,13.218603 30.748488,12.94466 30.503363,12.713921 30.171711,12.425569 29.638228,11.964152 29.176821,11.545997 28.801922,11.1567 28.340505,10.565508 C 28.210727,10.349225 28.109798,10.132937 28.008886,9.8878073 27.907937,9.613853 27.85026,9.3110615 27.835856,9.0082635 c 0,-0.028865 0,-0.043253 0,-0.072117 0,-0.2739438 0.04324,-0.5623304 0.100928,-0.8362927 0,-0.028824 0.01439,-0.043253 0.04325,-0.043253 h 0.02886 c 0.317202,0.6056024 0.692107,1.2111992 1.095826,1.7879595 0.201876,0.3027777 0.446986,0.5623167 0.735371,0.7497977 l 0.216301,0.14418 C 29.912187,10.262713 29.840099,9.7724605 29.840099,9.2822032 l -0.01442,-0.3171948 0.02886,-0.4325747 0.02885,-0.2451275 c 0.02883,-0.072093 0.100916,-0.1297686 0.173043,-0.1297686 0.0865,0 0.158583,0.057673 0.187438,0.1297686 l 0.05766,0.2451275 0.129769,0.3316353 0.158619,0.4181342 0.115366,0.2739833 0.201842,0.4037204 c 0.0721,0.1730281 0.187473,0.3316381 0.331646,0.4469701 0.230713,0.201891 0.591193,0.02886 0.591193,-0.273942 0,0 0,-0.02886 0,-0.04325 L 31.70018,9.1091803 C 31.67132,9.0082675 31.65692,8.9073338 31.64248,8.8063968 v -0.01442 c 0,-0.043261 0.02886,-0.072109 0.07211,-0.086523 0.02886,-0.014364 0.04326,-0.014364 0.07211,-0.014364 0.04325,0 0.100915,0.014364 0.144179,0.043253 l 0.475825,0.3893025 0.360475,0.3460636 0.33164,0.3316248 0.720943,0.8218883 c 0.158604,0.144193 0.403731,0.05769 0.432566,-0.158598 l 0.0721,-0.432581 0.05767,-0.4469833 0.02886,-0.4470038 0.02886,-0.4758201 0.02882,-0.187444 c 0.01442,-0.043245 0.04324,-0.072101 0.08651,-0.072101 v 0 c 0.07209,0 0.144208,0.043261 0.187454,0.100916 0.346069,0.4470272 0.648861,0.9372555 0.893962,1.4707461 0.07211,0.1586171 0.18747,0.3172211 0.302818,0.4470171 0.144194,0.144166 0.389303,0.0865 0.446978,-0.100956 0.05768,-0.187444 0.115353,-0.3604725 0.173028,-0.5479197 0.07211,-0.2162788 0.0865,-0.3748912 0.04324,-0.5335084 -0.04324,-0.2162788 -0.05767,-0.4325666 -0.05767,-0.6488535 0,-0.1297775 0,-0.2595405 0.01442,-0.3893099 l 0.05769,-0.4181423 c 0,-0.1153661 0.100914,-0.2018763 0.216273,-0.2018763 0.07209,0 0.129772,0.028849 0.173042,0.08651 0.144166,0.1730197 0.259541,0.3604887 0.360454,0.5623433 0.20187,0.3893075 0.302805,0.8218902 0.331647,1.254456 l 0.01442,0.259546 c 0.389315,-0.4325657 0.720954,-0.8939971 0.966075,-1.4130675 l 0.05768,-0.1153451 0.259538,1.4851543 0.100929,-0.2306959 0.08651,-0.216295 0.144194,-0.3172295 0.273964,-0.5334899 0.36047,-0.5479109 c 0.05767,-0.057681 0.115335,-0.115358 0.187447,-0.1730205 0.0721,-0.072117 0.158604,-0.1009555 0.259539,-0.1009555 0.216287,0 0.389315,0.1730334 0.389315,0.3893074 v 0 c 0,0.057689 0,0.115358 -0.01442,0.1730415 -0.01442,0.3172021 -0.0721,0.648856 -0.187452,0.9516531 l -0.11534,0.3316458 -0.187466,0.4037204 c -0.01442,0.01442 -0.02883,0.028865 -0.02883,0.057665 v 0 c 0.01442,0.1009499 0.100943,0.1586201 0.187452,0.1442011 l 0.05767,-0.01442 0.12977,-0.043261 0.115363,-0.072093 0.216287,-0.1297686 0.749772,-0.6200194 0.100969,-0.086518 0.144172,-0.1153185 0.10092,-0.1009685 0.08652,-0.100916 0.158612,-0.1586171 c 0,-0.01442 0.01442,-0.01442 0.02886,-0.028816 0.01442,-0.01442 0.02882,-0.01442 0.05767,-0.01442 0.02886,0 0.05767,0.01442 0.07211,0.057681 0.0144,0.043261 0.0144,0.072077 0.0144,0.1153371 0,0.043269 0,0.086526 -0.0144,0.1297686 -0.08652,0.3460644 -0.187458,0.6921159 -0.331645,1.0093583 l -0.230704,0.5911568 -0.0721,0.187473 -0.0144,0.07208 c 0,0.01442 0,0.01442 0,0.01442 0,0.04325 0.02882,0.07207 0.05767,0.100921 0.0721,0.02885 0.144188,0.02885 0.187439,-0.01442 l 0.25954,-0.129759 0.288387,-0.187457 0.288387,-0.187453 0.31721,-0.201863 0.50466,-0.3893226 0.634443,-0.5478923 0.533481,-0.5191035 c 0.04326,-0.028857 0.07212,-0.043261 0.129778,-0.057681 0.01442,0 0.02886,-0.01442 0.04325,-0.01442 0.04326,0 0.08651,0.028865 0.115359,0.072101 0.02886,0.028816 0.04325,0.072077 0.04325,0.1153451 0,0.028849 -0.0144,0.057689 -0.0144,0.072101 -0.331643,0.7642277 -0.79306,1.4563133 -1.355412,2.0330763 -0.27394,0.273962 -0.547898,0.533508 -0.850703,0.764198 -0.346042,0.273984 -0.720942,0.533517 -1.110257,0.749804 -0.11535,0.07207 -0.230703,0.14418 -0.360481,0.216273 -0.173035,0.115337 -0.346051,0.230704 -0.504668,0.360473 -0.173033,0.129777 -0.317221,0.288381 -0.446985,0.446986 l -0.115359,0.158613 v 0 c 0.821882,0.04325 1.658209,0.158612 2.480085,0.346051 0.677691,0.15863 1.312122,0.418155 1.888884,0.80747 0.533495,0.360484 0.89398,0.922814 0.980507,1.557236 0.01437,0.02886 0.01437,0.07211 0.01437,0.115361 0,0.389315 -0.245133,0.735365 -0.605594,0.850737 -0.04326,0.01437 -0.08652,0.02882 -0.115359,0.02882 -0.08652,0 -0.158593,-0.02882 -0.216295,-0.07208 l -0.05766,-0.04326 c -0.07211,0.288368 -0.259546,0.519084 -0.504671,0.663277 -0.288365,0.158599 -0.605599,0.245117 -0.922809,0.245117 -0.04326,0 -0.08652,0 -0.129775,0 -0.346051,-0.01442 -0.663272,-0.05769 -0.994904,-0.08652 -0.302819,-0.04325 -0.605604,-0.0865 -0.908407,-0.144192 -0.173022,-0.02882 -0.346057,-0.04325 -0.533497,-0.02882 -0.187451,0.02882 -0.360466,0.11534 -0.490236,0.259533 -0.100955,0.08652 -0.173035,0.201849 -0.245135,0.331621 -0.129764,0.216298 -0.259546,0.418153 -0.403718,0.605608 -0.389309,0.533495 -0.9084,0.980507 -1.485161,1.297707 -0.317222,0.173031 -0.634444,0.331653 -0.966084,0.461424 -0.331624,0.144173 -0.692099,0.259539 -1.06699,0.331612 -0.663267,0.158613 -1.29771,0.259538 -1.932148,0.374899 -0.374884,0.05768 -0.764206,0.158609 -1.139105,0.302797 -0.317213,0.129769 -0.620019,0.302819 -0.893962,0.519092 -0.411232,0.317328 -0.252188,0.819397 -0.388845,1.558209 -0.135789,0.734138 -0.06441,0.566065 -0.239477,1.018774 -0.17346,0.448523 -0.484925,0.697729 -0.487109,0.899002 0.02576,0.26941 0.08396,0.76704 0.106089,1.03716 0.02882,0.259554 0.0721,0.533511 0.144201,0.80746 0.04324,0.245127 0.129764,0.461401 0.259538,0.677688 0.187447,0.331634 0.418131,0.663285 0.648857,0.980482 l 1.02373,1.413071 0.389324,0.547937 0.62001,0.893968 0.562339,0.807455 0.56233,0.821891 0.749808,1.196764 c 0.230699,0.403727 0.504642,0.764224 0.807461,1.110276 0.331632,0.37487 0.634437,0.764186 0.93724,1.1535 0.302786,0.389332 0.560504,0.597275 0.896798,0.850908 l 0.589763,0.200483 0.643201,0.160439 c 0.448329,0.150966 0.643111,0.553919 0.635399,1.004649 -0.04652,0.136288 -0.0849,0.223816 -0.250631,0.258523 -0.432038,0.03065 -0.760034,0.03648 -1.209841,0.02072 -0.622613,-0.01112 -0.442812,0.0091 -0.964531,-0.0223 -0.389302,-0.02885 -0.844832,-0.238425 -1.262988,-0.44031 -0.14418,-0.05766 -0.273962,-0.144184 -0.41815,-0.230693 -0.158612,-0.115348 -0.317209,-0.259543 -0.432569,-0.418166 -0.08651,-0.12976 -0.187439,-0.24512 -0.288379,-0.360458 -0.576753,-0.764218 -1.124694,-1.542843 -1.672587,-2.335874 -0.245143,-0.374908 -0.576775,-0.80748 -0.922845,-1.211191 -0.547914,-0.63443 -1.052588,-1.283283 -1.557222,-1.932141 -0.605602,-0.793069 -1.268895,-1.571672 -1.946585,-2.30704 -0.173027,-0.187462 -0.360454,-0.403736 -0.562329,-0.63444 -0.115366,-0.129777 -0.28838,-0.302806 -0.446986,-0.446978 -0.245135,-0.230732 -0.43258,-0.519093 -0.533515,-0.850728 -0.10093,-0.302806 -0.216281,-0.576756 -0.317216,-0.85072 -0.591185,-1.384213 -2.609836,-1.225622 -2.970303,0.245115 l -0.100948,0.418159 -0.07207,0.317207 -0.07212,0.418155 -0.04325,0.230697 c -0.144188,0.620018 -0.273952,1.240053 -0.374907,1.86006 -0.02882,0.144195 -0.07208,0.317223 -0.100914,0.490231 -0.02886,0.158622 -0.07212,0.302817 -0.129782,0.446984 -0.187445,0.447006 -0.40372,0.879578 -0.663253,1.283311 -0.201889,0.317195 -0.461436,0.591178 -0.749803,0.836293 l -1.196767,0.922802 -0.720969,0.620029 -0.331618,0.317207 0.663265,0.273978 0.403733,0.18744 0.36048,0.158601 c 0.259554,0.08652 0.562343,0.173034 0.865143,0.273977 0.259546,0.08651 0.43256,0.158595 0.620013,0.245109 0.230704,0.100954 0.432566,0.259539 0.591165,0.447001 0.05768,0.07209 0.100954,0.158595 0.100954,0.245115 v 0 c -0.01443,0.288372 -0.129788,0.57675 -0.317242,0.778631 -0.144172,0.158605 -0.346056,0.273943 -0.547893,0.317207 -0.259552,0.0721 -0.519103,0.100936 -0.778644,0.100936 -0.05767,0 -0.129777,0 -0.201875,0 -0.634426,-0.04324 -1.24002,-0.230703 -1.802365,-0.562322 l -1.369787,-0.836311 -0.144194,-0.100932 c -0.605594,0.490236 -1.225601,0.922797 -1.874456,1.312101 -0.418157,0.245148 -0.850737,0.447011 -1.312126,0.605612 -0.288387,0.100937 -0.605602,0.17304 -0.908387,0.187463 l -0.187473,0.0144 c -0.01443,-0.07212 -0.01443,-0.158616 -0.01443,-0.230709 0,-0.115349 0.01443,-0.245131 0.02882,-0.360491 0.04326,-0.216286 0.115347,-0.418133 0.20187,-0.605596 0.07209,-0.144178 0.158604,-0.288367 0.259538,-0.418133 0.158606,-0.216275 0.346052,-0.432573 0.533517,-0.634441 l 0.216287,-0.230698 0.259538,-0.259538 0.331614,-0.259549 0.288386,-0.216286 0.230712,-0.187435 0.259538,-0.144216 0.230687,-0.115322 C 16.99279,35.683447 16.603475,35.322977 16.199748,34.991309 15.37787,34.313638 14.772274,33.823392 14.152255,33.333139 13.86388,33.088013 13.3592,32.554526 12.955473,31.963331 12.796889,31.747045 12.710365,31.4731 12.69594,31.19914 L 12.68152,30.997255 12.63826,30.521431 C 12.5085,29.39676 12.176867,28.30091 11.672205,27.2916 l -0.08652,-0.173028 c -0.533517,0.98048 -1.54283,1.614924 -2.653081,1.643774 -0.028862,0 -0.072107,0 -0.1009351,0 -0.7642072,0 -1.4995849,-0.230731 -2.1051751,-0.692134 L 6.1064736,27.62324 5.601805,27.277183 5.0683105,26.94553 C 5.0106195,26.90229 4.9385398,26.88787 4.8664334,26.88787 4.5780586,26.87345 4.3040898,26.97439 4.0878027,27.147416 c -0.086505,0.05766 -0.1586051,0.129769 -0.20187,0.216279 -0.072074,0.100921 -0.1153386,0.201858 -0.1730224,0.317217 -0.072093,0.158611 -0.1153445,0.331631 -0.1441791,0.490222 -0.014434,0.158631 -0.028862,0.273971 -0.043258,0.40374 -0.028857,0.158623 -0.043258,0.346058 -0.072108,0.519081 -0.028824,0.2884 -0.086517,0.562356 -0.1730212,0.836327 -0.072093,0.273944 -0.1586051,0.547888 -0.2307044,0.821882 -0.1730087,0.67767 -0.4469775,1.326529 -0.8074111,1.917713 -0.2884144,0.461401 -0.6056497,0.908412 -0.9661515,1.312116 -0.1297291,0.158629 -0.30279125,0.288389 -0.47578515,0.418167 l -0.648848,0.418138 c -0.475854,0.317207 -1.0237932,0.475835 -1.58611005,0.475835 0,0 0,0 -0.014444,0 -0.2162611,0 -0.3893228,-0.144193 -0.4469651,-0.346063 -0.043269,-0.158607 -0.057713,-0.331619 -0.057713,-0.490241 0,-0.331647 0.086531,-0.663264 0.2451484,-0.966066 0.3460572,-0.634446 0.82190955,-1.211217 1.39867115,-1.672608 0.1729945,-0.144194 0.3604336,-0.288383 0.5623172,-0.446984 0.1441731,-0.100932 0.2595254,-0.230698 0.3316122,-0.389326 0.3316793,-0.605596 0.60558195,-1.26886 0.77864415,-1.96096 0.201883,-0.807483 0.3605012,-1.643787 0.432521,-2.494509 l 0.086597,-0.793033 0.043197,-0.44698 0.014445,-0.201885 c 0,-0.01442 0,-0.01442 0,-0.02886 0,-0.331632 0.057643,-0.663259 0.1729955,-0.98048 0.1730622,-0.432575 0.5191184,-0.74977 0.9516791,-0.893984 0.086503,-0.02882 0.1730153,-0.04326 0.259533,-0.04326 0.0721,0 0.1297559,0 0.1874451,0.01442 0.043262,0.01442 0.1153391,0.02882 0.2018629,0.04325 l 0.3172292,0.07209 0.2162736,0.0577 0.2163003,0.05767 0.3316189,0.05767 0.3460429,0.10095 0.3893153,0.08652 0.346071,0.100934 0.2018624,0.0721 c 0.1009218,0.05766 0.2018773,0.08652 0.3028122,0.115324 0.057662,0.01442 0.1009276,0.01442 0.1441866,0.01442 0.3604601,-0.07211 0.6055889,-0.403761 0.5767473,-0.764228 -0.014429,-0.245119 -0.028821,-0.504668 -0.028821,-0.749766 0,-0.403752 0.028821,-0.793062 0.072087,-1.182359 l 0.028855,-0.245128 C 7.0869491,20.976021 7.0292807,20.932761 6.9571801,20.875077 6.6111106,20.500195 6.40926,20.009945 6.40926,19.490861 c 0,-0.02882 0,-0.07209 0,-0.100937 0.014432,-0.302789 0.1153532,-0.605587 0.2883681,-0.850725 0.4758371,-0.706519 1.1390948,-1.297676 1.9033154,-1.687012 l 0.5911914,-0.30278 0.3172024,-0.144206 0.3172225,-0.115345 0.2739552,-0.115358 0.302784,-0.115375 0.331654,-0.129753 c 0.144179,-0.04328 0.288386,-0.08653 0.446984,-0.129771 0.446999,-0.100927 0.893984,-0.158597 1.32655,-0.187444 0.346057,-0.01442 0.692128,-0.02886 1.038164,-0.02886 0,0 0.01443,0 0.02882,0 0.547939,0 1.110277,0 1.67262,-0.01442 0.158611,-0.01442 0.302798,-0.01442 0.446979,-0.01442 0.447011,0 0.893996,0.02882 1.340976,0.05768 0.129768,0.01436 0.245126,0.01436 0.360465,0.01436 0.432581,-0.01436 0.865135,-0.05767 1.283305,-0.144166 0.331633,-0.05768 0.634438,-0.144194 0.951653,-0.259547 0.201849,-0.08652 0.432555,-0.158609 0.663264,-0.230697 0.158605,-0.04326 0.302799,-0.100948 0.432569,-0.173034 0.158618,-0.0865 0.317222,-0.15862 0.490236,-0.230698 0.245135,-0.0865 0.475839,-0.201872 0.706559,-0.346051 0.230683,-0.129777 0.490221,-0.273978 0.749774,-0.40374 0.259546,-0.129768 0.519079,-0.259538 0.778618,-0.418136 0.288374,-0.158623 0.591172,-0.288395 0.893969,-0.374911 0.591185,-0.17303 1.196781,-0.25954 1.816802,-0.273943 v 0 z"
   sodipodi:nodetypes="ccccccsccscscccscccscccccccccccccccssscccccccccsccccccccccccsscccccccccccccsscsscsccsssccccccccccsscccccccccccccccccccssssscccccsccccccccssssccccccccccscssscccsscsccscsccccczzcccccccccccsscccccccccsccscsssccccccccssscccccccsssccscscccccsccscssccccccccscccccccssccccsccscsccscccccsssccccsccccscssscccccccccsccscccsscccccccccccscscsccssccscsccc" /></svg>
